<?xml version="1.0" encoding="UTF-8"?>
<svg width="95px" height="35px" viewBox="0 0 95 35" version="1.1" xmlns="http://www.w3.org/2000/svg" xmlns:xlink="http://www.w3.org/1999/xlink">
    <!-- Generator: Sketch 41.1 (35376) - http://www.bohemiancoding.com/sketch -->
    <title>Group</title>
    <desc>Created with Sketch.</desc>
    <defs>
        <radialGradient cx="50%" cy="18.9871326%" fx="50%" fy="18.9871326%" r="79.6033442%" id="radialGradient-1">
            <stop stop-color="#FFCF00" offset="0%"></stop>
            <stop stop-color="#FFD600" offset="100%"></stop>
        </radialGradient>
    </defs>
    <g id="Page-1" stroke="none" stroke-width="1" fill="none" fill-rule="evenodd">
        <g id="Artboard-2" transform="translate(-16.000000, -154.000000)">
            <g id="Group" transform="translate(22.000000, 154.000000)">
                <g id="Group-7">
                    <g id="Page-1">
                        <g id="Group-24" transform="translate(0.000000, 0.349455)">
                            <path d="M12.7038886,18.9120239 L9.01982296,16.5063092 L8.89367993,16.5862299 L0.448717949,11.4313307 L0.448717949,23.431947 C0.448320303,23.4569527 0.448320304,23.4819586 0.448717949,23.5069624 L0.448717949,23.5461979 C0.448717949,23.5461979 0.449044565,23.5464793 0.449695176,23.5470391 C0.479995951,24.4679381 1.04983693,25.3830399 2.15921886,26.0859136 L13.3975354,33.2056593 C15.6777488,34.6508791 19.3758528,34.6508791 21.6560662,33.2056593 L32.8943828,26.0859136 C33.8719359,25.466563 34.4305576,24.6824258 34.5702478,23.874741 C34.582288,23.8646499 34.5884146,23.859484 34.5884146,23.859484 L34.5884146,23.7504723 C34.610771,23.563418 34.610771,23.3754932 34.5884146,23.1884389 L34.5884146,11.251246 L17.2787147,21.7045489 L12.7038886,18.9120239 Z" id="Combined-Shape" fill="url(#radialGradient-1)"></path>
                            <path d="M32.8943828,8.77748206 L21.6560662,1.32458826 C19.3758528,-0.187576707 15.6777488,-0.187576707 13.3975354,1.32458826 L2.15921886,8.77748206 C-0.121846669,10.2902121 -0.121846669,12.7421119 2.15921886,14.2548419 L13.3975354,21.7071707 C15.6777488,23.2199007 19.3758528,23.2199007 21.6560662,21.7071707 L32.8943828,14.2548419 C35.1754483,12.7421119 35.1754483,10.2902121 32.8943828,8.77748206 Z M20.675803,11.5496267 L29.352255,11.5496267 C29.8501422,11.5496267 30.1034119,11.9121305 29.7565426,12.1283942 L25.5099498,14.7802451 C25.292075,14.9164818 24.9318343,14.9188635 24.7092402,14.785485 L20.2793809,12.1336341 C19.9214999,11.9192758 20.1724099,11.5496267 20.675803,11.5496267 Z M14.343747,11.5496267 L5.66729497,11.5496267 C5.16940773,11.5496267 4.91613808,11.9121305 5.26300739,12.1283942 L9.50960012,14.7802451 C9.72747495,14.9164818 10.0877156,14.9188635 10.3103098,14.785485 L14.7401691,12.1336341 C15.0980501,11.9192758 14.8471401,11.5496267 14.343747,11.5496267 Z M20.675803,10.4837417 L29.352255,10.4837417 C29.8501422,10.4837417 30.1034119,10.121238 29.7565426,9.90497421 L25.5099498,7.2531233 C25.292075,7.11688666 24.9318343,7.1145049 24.7092402,7.24788343 L20.2793809,9.89973434 C19.9214999,10.1140927 20.1724099,10.4837417 20.675803,10.4837417 Z M14.343747,10.4837417 L5.66729497,10.4837417 C5.16940773,10.4837417 4.91613808,10.121238 5.26300739,9.90497421 L9.50960012,7.2531233 C9.72747495,7.11688666 10.0877156,7.1145049 10.3103098,7.24788343 L14.7401691,9.89973434 C15.0980501,10.1140927 14.8471401,10.4837417 14.343747,10.4837417 Z M16.722358,12.9901624 L16.722358,18.2448 C16.722358,18.5463307 16.1237922,18.699716 15.7666977,18.4896449 L11.3879643,15.9178211 C11.1630105,15.7858716 11.1590777,15.5677024 11.3793122,15.4328949 L15.7580456,12.7500811 C16.1119939,12.533341 16.722358,12.6852972 16.722358,12.9901624 Z M16.722358,9.04320602 L16.722358,3.78856845 C16.722358,3.48703771 16.1237922,3.3336524 15.7666977,3.54372358 L11.3879643,6.11554738 C11.1630105,6.24749685 11.1590777,6.46566601 11.3793122,6.60047359 L15.7580456,9.28328737 C16.1119939,9.50002748 16.722358,9.34807123 16.722358,9.04320602 Z M18.2971919,12.9901624 L18.2971919,18.2448 C18.2971919,18.5463307 18.8957578,18.699716 19.2528522,18.4896449 L23.6315857,15.9178211 C23.8565394,15.7858716 23.8604722,15.5677024 23.6402377,15.4328949 L19.2615043,12.7500811 C18.907556,12.533341 18.2971919,12.6852972 18.2971919,12.9901624 Z M18.2971919,9.04320602 L18.2971919,3.78856845 C18.2971919,3.48703771 18.8957578,3.3336524 19.2528522,3.54372358 L23.6315857,6.11554738 C23.8565394,6.24749685 23.8604722,6.46566601 23.6402377,6.60047359 L19.2615043,9.28328737 C18.907556,9.50002748 18.2971919,9.34807123 18.2971919,9.04320602 Z" id="Combined-Shape" fill="#FFE900"></path>
                        </g>
                    </g>
                </g>
                <path d="M74.2259572,20.2181325 C74.2094882,20.2410024 74.1925025,20.2634916 74.175,20.2856 C73.3949961,21.2528048 72.6501035,21.9118982 71.9403,22.2629 C71.2304965,22.6139018 70.3530052,22.8049998 69.3078,22.8362 C68.6837969,23.3666027 67.9428043,23.6318 67.0848,23.6318 C66.2735959,23.6318 65.6535021,23.4446019 65.2245,23.0702 C64.7954979,22.6957981 64.581,22.2746023 64.581,21.8066 C64.581,21.400998 64.7291985,21.0500015 65.0256,20.7536 C65.3220015,20.4571985 65.7587971,20.309 66.336,20.309 C66.538801,20.309 66.7766986,20.3284998 67.0497,20.3675 C67.3227014,20.4065002 67.5293993,20.4337999 67.6698,20.4494 C67.6541999,20.043798 67.5645008,19.6616018 67.4007,19.3028 C67.2368992,18.9439982 67.0302012,18.5969017 66.7806,18.2615 C66.5309988,17.9260983 66.2970011,17.6336012 66.0786,17.384 C65.5949976,18.3044046 65.1153024,19.068797 64.6395,19.6772 C64.552793,19.7880712 64.4646617,19.897906 64.3751058,20.0067045 C64.3201131,20.1081728 64.2561446,20.2011379 64.1832,20.2856 C63.9775399,20.5357271 63.7416792,20.7789213 63.4756165,21.0151835 C63.3472895,21.1481425 63.2165507,21.2793479 63.0834,21.4088 C62.8782554,21.6139446 62.6647869,21.744152 62.4429911,21.7994239 C62.2211841,21.9452503 61.9861538,22.0880423 61.7379,22.2278 C60.6848947,22.820603 59.557806,23.117 58.3566,23.117 C56.7185918,23.117 55.4472045,22.6724044 54.5424,21.7832 C54.3816885,21.6252594 54.2352501,21.4569839 54.1030845,21.2783733 C53.5646688,21.7746467 52.9584095,22.1925204 52.2843,22.532 C51.2000946,23.0780027 49.9794068,23.351 48.6222,23.351 C47.5613947,23.351 46.6410039,23.1911016 45.861,22.8713 C45.0809961,22.5514984 44.4843021,22.1147028 44.0709,21.5609 C43.6574979,21.0070972 43.4508,20.3870034 43.4508,19.7006 C43.4508,18.6709949 43.8641959,17.758404 44.691,16.9628 C45.5178041,16.167196 46.7033923,15.4028037 48.2478,14.6696 L44.4102,14.7632 C44.0669983,14.7788001 43.8057009,14.6579013 43.6263,14.4005 C43.4468991,14.1430987 43.3572,13.8350018 43.3572,13.4762 C43.3572,13.1017981 43.4468991,12.7703014 43.6263,12.4817 C43.8057009,12.1930986 44.0513984,12.0488 44.3634,12.0488 C45.0810036,12.0488 46.040394,12.1033995 47.2416,12.2126 C47.4912012,12.2282001 47.9474967,12.2593998 48.6105,12.3062 C49.2735033,12.3530002 49.8311977,12.3764 50.2836,12.3764 C50.4396008,12.3764 50.7359978,12.3140006 51.1728,12.1892 C51.2508004,12.1735999 51.4028989,12.1346003 51.6291,12.0722 C51.8553011,12.0097997 52.0463992,11.9786 52.2024,11.9786 C52.4520012,11.9786 52.6586992,12.0877989 52.8225,12.3062 C52.9863008,12.5246011 53.0682,12.8599977 53.0682,13.3124 C53.0682,13.8116025 52.9512012,14.2015986 52.7172,14.4824 C52.4831988,14.7632014 52.1166025,15.0127989 51.6174,15.2312 C50.1977929,15.839603 49.0200047,16.4908965 48.084,17.1851 C47.1479953,17.8793035 46.68,18.5695966 46.68,19.256 C46.68,19.6928022 46.882798,20.0515986 47.2884,20.3324 C47.694002,20.6132014 48.294596,20.7536 49.0902,20.7536 C49.9638044,20.7536 50.8490955,20.5352022 51.7461,20.0984 C52.2782224,19.8392795 52.7787739,19.5005597 53.2477596,19.0822363 C53.2060532,18.7808589 53.1852,18.4643803 53.1852,18.1328 C53.1852,17.0563946 53.4113977,16.0541046 53.8638,15.1259 C54.3162023,14.1976954 54.944096,13.4606027 55.7475,12.9146 C56.550904,12.3685973 57.4595949,12.0956 58.4736,12.0956 C59.3784045,12.0956 60.1037973,12.3646973 60.6498,12.9029 C61.1958027,13.4411027 61.4688,14.1703954 61.4688,15.0908 C61.4688,16.1672054 61.0827039,17.0914961 60.3105,17.8637 C59.5382961,18.6359039 58.2318092,19.2481977 56.391,19.7006 C56.781002,20.4182036 57.5219945,20.777 58.614,20.777 C59.3160035,20.777 60.1154955,20.5313025 61.0125,20.0399 C61.5707627,19.7340691 62.0821918,19.3693278 62.5467927,18.9456715 C63.1306754,18.1977023 63.5903415,17.560149 63.9258,17.033 C64.1910013,16.5805977 64.5029982,15.9761038 64.8618,15.2195 C65.2206018,14.4628962 65.5715983,13.6790041 65.9148,12.8678 C66.2112015,12.1813966 66.8273953,11.8382 67.7634,11.8382 C68.2002022,11.8382 68.5043991,11.8771996 68.676,11.9552 C68.8476009,12.0332004 68.9334,12.1579991 68.9334,12.3296 C68.9334,12.4232005 68.9022003,12.571399 68.8398,12.7742 C68.7773997,12.977001 68.6916005,13.179799 68.5824,13.3826 C68.3015986,13.9442028 68.1612,14.419998 68.1612,14.81 C68.1612,15.0440012 68.2430992,15.3013986 68.4069,15.5822 C68.5707008,15.8630014 68.8241983,16.2139979 69.1674,16.6352 C69.6666025,17.2904033 70.0448987,17.8480977 70.3023,18.3083 C70.5597013,18.7685023 70.6884,19.2715973 70.6884,19.8176 C70.6884,19.9736008 70.6728002,20.1919986 70.6416,20.4728 C71.4060038,20.1763985 72.3029949,19.3886064 73.3326,18.1094 C73.4533611,17.9685121 73.5838585,17.8730674 73.7240941,17.823065 C73.681498,17.3725876 73.6602,16.8986328 73.6602,16.4012 C73.6602,15.7147966 73.6835998,15.0206035 73.7304,14.3186 L72.8178,14.3186 C72.3497977,14.3186 72.0339008,14.2328009 71.8701,14.0612 C71.7062992,13.8895991 71.6244,13.6166019 71.6244,13.2422 C71.6244,12.3685956 71.9753965,11.9318 72.6774,11.9318 L74.0112,11.9318 C74.2764013,10.2157914 74.6819973,8.6480071 75.228,7.2284 C75.7740027,5.8087929 76.4330961,4.67780421 77.2053,3.8354 C77.9775039,2.99299579 78.8081956,2.5718 79.6974,2.5718 C80.3526033,2.5718 80.8673981,2.86039711 81.2418,3.4376 C81.6162019,4.01480289 81.8034,4.74019563 81.8034,5.6138 C81.8034,8.03181209 80.7894101,10.137791 78.7614,11.9318 L81.3822,11.9318 C81.6318012,11.9318 81.8111995,11.9863995 81.9204,12.0956 C82.0296005,12.2048005 82.0842,12.4075985 82.0842,12.704 C82.0842,13.7804054 81.2028088,14.3186 79.44,14.3186 L76.5852,14.3186 C76.5539998,15.0986039 76.5384,15.7069978 76.5384,16.1438 C76.5384,17.2670056 76.5968994,18.1444968 76.7139,18.7763 C76.8309006,19.4081032 77.0258986,19.8604986 77.2989,20.1335 C77.5719014,20.4065014 77.9501976,20.543 78.4338,20.543 C78.6834012,20.543 78.9797983,20.4650008 79.323,20.309 C79.6662017,20.1529992 79.9781986,19.9502012 80.259,19.7006 C80.4306009,19.5445992 80.6021991,19.4666 80.7738,19.4666 C80.9610009,19.4666 81.1130994,19.5718989 81.2301,19.7825 C81.3471006,19.9931011 81.4056,20.2465985 81.4056,20.543 C81.4056,20.8394015 81.3471006,21.1279986 81.2301,21.4088 C81.1130994,21.6896014 80.9376012,21.9235991 80.7036,22.1108 C79.8923959,22.7816034 78.9720051,23.117 77.9424,23.117 C76.4603926,23.117 75.3762034,22.4969062 74.6898,21.2567 C74.5122126,20.9358318 74.3575984,20.589643 74.2259572,20.2181325 Z M56.6133,15.395 C56.215498,16.0658034 56.0166,16.8769952 56.0166,17.8286 L56.0166,17.8754 C56.9370046,17.6569989 57.6623973,17.3294022 58.1928,16.8926 C58.7232027,16.4557978 58.9884,15.9488029 58.9884,15.3716 C58.9884,15.0751985 58.9065008,14.8373009 58.7427,14.6579 C58.5788992,14.4784991 58.3566014,14.3888 58.0758,14.3888 C57.4985971,14.3888 57.011102,14.7241966 56.6133,15.395 Z M78.2817,5.6957 C77.9930986,6.28070292 77.7201013,7.09189481 77.4627,8.1293 C77.2052987,9.16670519 76.9908009,10.3171937 76.8192,11.5808 C77.7396046,10.785196 78.4298977,9.89210495 78.8901,8.9015 C79.3503023,7.91089505 79.5804,7.01000406 79.5804,6.1988 C79.5804,5.2783954 79.4088017,4.8182 79.0656,4.8182 C78.8315988,4.8182 78.5703014,5.11069707 78.2817,5.6957 Z" id="zest" fill="#FFDB00"></path>
            </g>
        </g>
    </g>
</svg>